<mxfile host="app.diagrams.net" modified="2023-09-04T12:24:24.102Z" agent="Mozilla/5.0 (Windows NT 10.0; Win64; x64) AppleWebKit/537.36 (KHTML, like Gecko) Chrome/116.0.0.0 Safari/537.36" etag="p5ivj5HNWyhlw5bD_SYs" version="21.7.2" type="device">
  <diagram name="Pagina-1" id="b2FZdVXzzUyPhcvcMQGI">
    <mxGraphModel dx="1434" dy="758" grid="1" gridSize="10" guides="1" tooltips="1" connect="1" arrows="1" fold="1" page="1" pageScale="1" pageWidth="827" pageHeight="1169" math="0" shadow="0">
      <root>
        <mxCell id="0" />
        <mxCell id="1" parent="0" />
        <mxCell id="UB8oEoWuyDSBDFne_uDO-2" style="edgeStyle=orthogonalEdgeStyle;rounded=0;orthogonalLoop=1;jettySize=auto;html=1;" edge="1" parent="1" source="UB8oEoWuyDSBDFne_uDO-1" target="UB8oEoWuyDSBDFne_uDO-3">
          <mxGeometry relative="1" as="geometry">
            <mxPoint x="180" y="355" as="targetPoint" />
          </mxGeometry>
        </mxCell>
        <mxCell id="UB8oEoWuyDSBDFne_uDO-1" value="Actor" style="shape=umlActor;verticalLabelPosition=bottom;verticalAlign=top;html=1;outlineConnect=0;" vertex="1" parent="1">
          <mxGeometry x="40" y="290" width="60" height="130" as="geometry" />
        </mxCell>
        <mxCell id="UB8oEoWuyDSBDFne_uDO-3" value="Pagina autentificare/inregistrare&lt;br&gt;" style="ellipse;whiteSpace=wrap;html=1;aspect=fixed;" vertex="1" parent="1">
          <mxGeometry x="140" y="290" width="125" height="125" as="geometry" />
        </mxCell>
        <mxCell id="UB8oEoWuyDSBDFne_uDO-4" value="&amp;lt;&amp;lt;entend&amp;gt;&amp;gt;&lt;br&gt;" style="endArrow=open;endSize=12;dashed=1;html=1;rounded=0;exitX=0;exitY=1;exitDx=0;exitDy=0;entryX=0.8;entryY=0.12;entryDx=0;entryDy=0;entryPerimeter=0;" edge="1" parent="1" source="UB8oEoWuyDSBDFne_uDO-5" target="UB8oEoWuyDSBDFne_uDO-3">
          <mxGeometry width="160" relative="1" as="geometry">
            <mxPoint x="170.00417382415918" y="259.4658261758408" as="sourcePoint" />
            <mxPoint x="265.5946588936111" y="160.0019809887623" as="targetPoint" />
            <Array as="points" />
          </mxGeometry>
        </mxCell>
        <mxCell id="UB8oEoWuyDSBDFne_uDO-5" value="Autentificare" style="ellipse;whiteSpace=wrap;html=1;aspect=fixed;" vertex="1" parent="1">
          <mxGeometry x="330" y="140" width="80" height="80" as="geometry" />
        </mxCell>
        <mxCell id="UB8oEoWuyDSBDFne_uDO-6" value="&amp;lt;&amp;lt;include&amp;gt;&amp;gt;" style="endArrow=open;endSize=12;dashed=1;html=1;rounded=0;exitX=0.6;exitY=0.025;exitDx=0;exitDy=0;exitPerimeter=0;" edge="1" parent="1" source="UB8oEoWuyDSBDFne_uDO-5" target="UB8oEoWuyDSBDFne_uDO-7">
          <mxGeometry width="160" relative="1" as="geometry">
            <mxPoint x="410" y="140" as="sourcePoint" />
            <mxPoint x="470" y="90" as="targetPoint" />
          </mxGeometry>
        </mxCell>
        <mxCell id="UB8oEoWuyDSBDFne_uDO-7" value="username" style="ellipse;whiteSpace=wrap;html=1;aspect=fixed;" vertex="1" parent="1">
          <mxGeometry x="480" y="10" width="80" height="80" as="geometry" />
        </mxCell>
        <mxCell id="UB8oEoWuyDSBDFne_uDO-8" value="&amp;lt;&amp;lt;inlcude&amp;gt;&amp;gt;" style="endArrow=open;endSize=12;dashed=1;html=1;rounded=0;exitX=1;exitY=0.5;exitDx=0;exitDy=0;" edge="1" parent="1" source="UB8oEoWuyDSBDFne_uDO-5" target="UB8oEoWuyDSBDFne_uDO-9">
          <mxGeometry width="160" relative="1" as="geometry">
            <mxPoint x="430" y="189" as="sourcePoint" />
            <mxPoint x="480" y="180" as="targetPoint" />
          </mxGeometry>
        </mxCell>
        <mxCell id="UB8oEoWuyDSBDFne_uDO-9" value="parola" style="ellipse;whiteSpace=wrap;html=1;aspect=fixed;" vertex="1" parent="1">
          <mxGeometry x="480" y="190" width="80" height="80" as="geometry" />
        </mxCell>
        <mxCell id="UB8oEoWuyDSBDFne_uDO-10" value="Inregistrare" style="ellipse;whiteSpace=wrap;html=1;aspect=fixed;" vertex="1" parent="1">
          <mxGeometry x="330" y="420" width="80" height="80" as="geometry" />
        </mxCell>
        <mxCell id="UB8oEoWuyDSBDFne_uDO-11" value="&amp;lt;&amp;lt;entend&amp;gt;&amp;gt;&lt;br&gt;" style="endArrow=open;endSize=12;dashed=1;html=1;rounded=0;exitX=0;exitY=0;exitDx=0;exitDy=0;entryX=0.976;entryY=0.744;entryDx=0;entryDy=0;entryPerimeter=0;" edge="1" parent="1" source="UB8oEoWuyDSBDFne_uDO-10" target="UB8oEoWuyDSBDFne_uDO-3">
          <mxGeometry width="160" relative="1" as="geometry">
            <mxPoint x="300" y="520" as="sourcePoint" />
            <mxPoint x="198" y="617" as="targetPoint" />
            <Array as="points" />
          </mxGeometry>
        </mxCell>
        <mxCell id="UB8oEoWuyDSBDFne_uDO-14" value="&amp;lt;&amp;lt;inlcude&amp;gt;&amp;gt;" style="endArrow=open;endSize=12;dashed=1;html=1;rounded=0;exitX=0.688;exitY=0.05;exitDx=0;exitDy=0;exitPerimeter=0;" edge="1" parent="1" source="UB8oEoWuyDSBDFne_uDO-10" target="UB8oEoWuyDSBDFne_uDO-15">
          <mxGeometry width="160" relative="1" as="geometry">
            <mxPoint x="450" y="340" as="sourcePoint" />
            <mxPoint x="430" y="320" as="targetPoint" />
          </mxGeometry>
        </mxCell>
        <mxCell id="UB8oEoWuyDSBDFne_uDO-15" value="Nume" style="ellipse;whiteSpace=wrap;html=1;aspect=fixed;" vertex="1" parent="1">
          <mxGeometry x="390" y="280" width="80" height="80" as="geometry" />
        </mxCell>
        <mxCell id="UB8oEoWuyDSBDFne_uDO-16" value="Prenume" style="ellipse;whiteSpace=wrap;html=1;aspect=fixed;" vertex="1" parent="1">
          <mxGeometry x="490" y="300" width="80" height="80" as="geometry" />
        </mxCell>
        <mxCell id="UB8oEoWuyDSBDFne_uDO-17" value="&amp;lt;&amp;lt;inlcude&amp;gt;&amp;gt;" style="endArrow=open;endSize=12;dashed=1;html=1;rounded=0;exitX=1;exitY=0;exitDx=0;exitDy=0;entryX=0;entryY=0.5;entryDx=0;entryDy=0;" edge="1" parent="1" source="UB8oEoWuyDSBDFne_uDO-10" target="UB8oEoWuyDSBDFne_uDO-16">
          <mxGeometry width="160" relative="1" as="geometry">
            <mxPoint x="430" y="420" as="sourcePoint" />
            <mxPoint x="504" y="453" as="targetPoint" />
          </mxGeometry>
        </mxCell>
        <mxCell id="UB8oEoWuyDSBDFne_uDO-18" value="&amp;lt;&amp;lt;inlcude&amp;gt;&amp;gt;" style="endArrow=open;endSize=12;dashed=1;html=1;rounded=0;exitX=1.025;exitY=0.325;exitDx=0;exitDy=0;exitPerimeter=0;" edge="1" parent="1" source="UB8oEoWuyDSBDFne_uDO-10" target="UB8oEoWuyDSBDFne_uDO-19">
          <mxGeometry width="160" relative="1" as="geometry">
            <mxPoint x="430" y="450" as="sourcePoint" />
            <mxPoint x="504" y="430" as="targetPoint" />
          </mxGeometry>
        </mxCell>
        <mxCell id="UB8oEoWuyDSBDFne_uDO-19" value="Username" style="ellipse;whiteSpace=wrap;html=1;aspect=fixed;" vertex="1" parent="1">
          <mxGeometry x="510" y="390" width="80" height="80" as="geometry" />
        </mxCell>
        <mxCell id="UB8oEoWuyDSBDFne_uDO-20" value="Numar de telefon" style="ellipse;whiteSpace=wrap;html=1;aspect=fixed;" vertex="1" parent="1">
          <mxGeometry x="430" y="570" width="80" height="80" as="geometry" />
        </mxCell>
        <mxCell id="UB8oEoWuyDSBDFne_uDO-21" value="&amp;lt;&amp;lt;inlcude&amp;gt;&amp;gt;" style="endArrow=open;endSize=12;dashed=1;html=1;rounded=0;exitX=0.963;exitY=0.738;exitDx=0;exitDy=0;exitPerimeter=0;" edge="1" parent="1" source="UB8oEoWuyDSBDFne_uDO-10" target="UB8oEoWuyDSBDFne_uDO-22">
          <mxGeometry width="160" relative="1" as="geometry">
            <mxPoint x="430" y="520" as="sourcePoint" />
            <mxPoint x="500" y="510" as="targetPoint" />
          </mxGeometry>
        </mxCell>
        <mxCell id="UB8oEoWuyDSBDFne_uDO-22" value="Adresa de mail" style="ellipse;whiteSpace=wrap;html=1;aspect=fixed;" vertex="1" parent="1">
          <mxGeometry x="510" y="490" width="80" height="80" as="geometry" />
        </mxCell>
        <mxCell id="UB8oEoWuyDSBDFne_uDO-23" value="&amp;lt;&amp;lt;inlcude&amp;gt;&amp;gt;" style="endArrow=open;endSize=12;dashed=1;html=1;rounded=0;exitX=0.775;exitY=0.963;exitDx=0;exitDy=0;exitPerimeter=0;entryX=0.3;entryY=0.05;entryDx=0;entryDy=0;entryPerimeter=0;" edge="1" parent="1" source="UB8oEoWuyDSBDFne_uDO-10" target="UB8oEoWuyDSBDFne_uDO-20">
          <mxGeometry width="160" relative="1" as="geometry">
            <mxPoint x="390" y="540" as="sourcePoint" />
            <mxPoint x="464" y="573" as="targetPoint" />
          </mxGeometry>
        </mxCell>
        <mxCell id="UB8oEoWuyDSBDFne_uDO-24" value="&amp;lt;&amp;lt;inlcude&amp;gt;&amp;gt;" style="endArrow=open;endSize=12;dashed=1;html=1;rounded=0;exitX=0.5;exitY=1;exitDx=0;exitDy=0;" edge="1" parent="1" source="UB8oEoWuyDSBDFne_uDO-10" target="UB8oEoWuyDSBDFne_uDO-25">
          <mxGeometry width="160" relative="1" as="geometry">
            <mxPoint x="300" y="552" as="sourcePoint" />
            <mxPoint x="330" y="585" as="targetPoint" />
          </mxGeometry>
        </mxCell>
        <mxCell id="UB8oEoWuyDSBDFne_uDO-25" value="Zi de nastere" style="ellipse;whiteSpace=wrap;html=1;aspect=fixed;" vertex="1" parent="1">
          <mxGeometry x="320" y="570" width="80" height="80" as="geometry" />
        </mxCell>
        <mxCell id="UB8oEoWuyDSBDFne_uDO-26" value="&amp;lt;&amp;lt;inlcude&amp;gt;&amp;gt;" style="endArrow=open;endSize=12;dashed=1;html=1;rounded=0;" edge="1" parent="1" source="UB8oEoWuyDSBDFne_uDO-10" target="UB8oEoWuyDSBDFne_uDO-27">
          <mxGeometry width="160" relative="1" as="geometry">
            <mxPoint x="240" y="480" as="sourcePoint" />
            <mxPoint x="240" y="540" as="targetPoint" />
          </mxGeometry>
        </mxCell>
        <mxCell id="UB8oEoWuyDSBDFne_uDO-27" value="Parola" style="ellipse;whiteSpace=wrap;html=1;aspect=fixed;" vertex="1" parent="1">
          <mxGeometry x="220" y="570" width="80" height="80" as="geometry" />
        </mxCell>
        <mxCell id="UB8oEoWuyDSBDFne_uDO-28" value="&amp;lt;&amp;lt;inlcude&amp;gt;&amp;gt;" style="endArrow=open;endSize=12;dashed=1;html=1;rounded=0;exitX=0.013;exitY=0.375;exitDx=0;exitDy=0;exitPerimeter=0;" edge="1" parent="1" source="UB8oEoWuyDSBDFne_uDO-10" target="UB8oEoWuyDSBDFne_uDO-29">
          <mxGeometry width="160" relative="1" as="geometry">
            <mxPoint x="100" y="610" as="sourcePoint" />
            <mxPoint x="170" y="490" as="targetPoint" />
          </mxGeometry>
        </mxCell>
        <mxCell id="UB8oEoWuyDSBDFne_uDO-29" value="Cofirmare parola" style="ellipse;whiteSpace=wrap;html=1;aspect=fixed;" vertex="1" parent="1">
          <mxGeometry x="130" y="470" width="80" height="80" as="geometry" />
        </mxCell>
      </root>
    </mxGraphModel>
  </diagram>
</mxfile>
